<svg height="603pt" preserveAspectRatio="xMidYMid meet" viewBox="0 0 371 603" width="371pt" xmlns="http://www.w3.org/2000/svg"><g transform="matrix(.1 0 0 -.1 0 603)"><path d="m1666 5792c-29-11-34-17-25-28 13-16 7-17-47-14-18 1-35-4-39-10-5-7 2-9 19-4 15 4 26 2 26-4 0-15-50-52-71-52-27 0-76-22-61-27 6-3 12-11 12-19s6-14 13-14c15 0 71 34 99 59 36 34 137 83 157 76 32-10 14 29-18 42-21 7-37 6-65-5zm57-9c3-5-6-9-19-9-13-1-24 2-24 7 0 11 37 12 43 2z"/><path d="m1598 5783c7-3 16-2 19 1 4 3-2 6-13 5-11 0-14-3-6-6z"/><path d="m1770 5785c0-8 82-47 87-41 7 6-58 46-74 46-7 0-13-2-13-5z"/><path d="m1485 5721c-6-5-36-25-68-44-39-24-52-37-42-41 19-7 45 3 45 18 0 6 20 24 45 39 25 16 45 31 45 33 0 7-16 4-25-5z"/><path d="m1940 5682c18-22 29-45 26-50-3-6 1-26 9-46 8-19 15-47 15-62 0-19 4-25 15-20 9 3 15 0 15-9 0-8 6-29 14-47 28-67 55-158 47-158-5 0-19 25-31 55s-28 59-36 66c-8 6-15 21-15 33-1 18-2 18-6 3-3-12-10-16-20-13-13 5-13 2 2-20 9-14 15-27 13-29-9-9-131 123-159 171-32 56-51 75-25 26 18-35 33-114 17-92-9 13-11 13-11-2 0-10-5-18-11-18s-8-17-4-47c5-46-3-42-19 10-3 10-10 16-15 13s-30 23-56 59c-27 36-49 65-50 65s2-21 7-47c17-88 28-157 25-160-2-1-34 40-71 91-68 95-95 112-92 58 1-15 7-37 14-49 21-38-5-26-35 17-48 67-55 43-12-42 24-47 24-56 1-35-10 10-29 40-42 67-13 29-27 46-30 39-4-6-18-16-30-22-12-7-32-31-44-54-11-23-24-43-28-43-8 0 2 69 14 93 15 29 0 19-62-43-61-61-67-82-11-34l31 26v-57c0-31-5-65-10-76-12-21-1-26 18-7s27 0 27-62v-59l27 25 26 26 7-31c8-38 25-41 26-3 2 24 2 25 6 4 4-22 5-23 19-5 13 16 13 16 8 0-3-9-1-23 5-31 6-7 8-26 5-42-9-47-78-74-189-74-81 0-152 14-171 33-15 15-24 6-14-13 15-28-4-34-91-28-38 3-69 3-69 1 0-20 29-48 66-64 24-11 44-24 44-28 0-12-63-59-95-71l-27-10 23-19 23-18-32-49c-40-63-60-112-72-175-5-27-25-72-45-101-19-29-35-58-35-65 0-16 32-17 46-3 7 7 29-9 68-50 49-52 56-62 46-80-12-22-31-25-63-9-19 9-18 7 3-10 28-22 28-22-18-45-19-10-41-30-50-46s-26-31-37-34c-26-7-95-8-95-1 0 13 34 72 54 94l21 24-33-23c-41-30-59-57-68-105-4-21-22-72-41-112-31-67-33-77-23-109 20-61 141-186 197-205 78-25 194 13 245 81 21 28 27 31 78 30 94-1 141 5 151 20 6 9 12 11 15 5 17-40 72-107 116-141 29-22 54-49 56-60 1-11-16-39-44-69-90-98-138-243-133-405 3-88 0-104-38-220-47-143-71-259-77-378-4-77-40-198-67-227-5-5-9-19-9-30 0-12-46-91-102-176s-112-179-124-209c-31-76-48-194-42-292 4-71 3-86-13-103-10-11-32-35-49-53-21-24-35-32-49-27-14 4-21 0-27-17-4-13-2-24 5-26 6-2 18-19 27-37 12-26 13-41 5-70-5-20-8-42-6-48 2-7 6-25 10-41 5-23 8-27 16-15 5 7 9 23 9 34 0 25 17 52 26 42 7-7-21-77-83-204-28-59-36-90-43-165-16-186-46-252-148-328-34-25-61-51-62-58 0-15 36 11 124 90 34 31 57 62 66 88 7 21 16 38 20 35 3-2 19 10 34 26 38 40 89 60 157 62 47 2 61-2 92-26 38-29 97-130 97-166 0-11 16-32 35-47 33-25 35-30 35-83 0-31-5-63-10-71-8-12-10-10-10 9 0 20-2 21-15 11-8-7-15-28-15-46 0-28-6-38-32-54-18-11-40-20-48-20-12 1-11 3 3 11 21 12 22 35 1 43-23 9-28 7-16-7 8-9-2-11-45-8-39 2-58-1-64-10-7-12-9-12-9 0 0 17 56 82 84 97 11 7 26 9 34 6 13-4 31 13 32 29 0 10-83-21-101-37-20-18-27-18-32 4-3 10-5 5-6-12s-11-36-26-48c-14-11-25-26-25-34 0-29-33-54-70-53-23 1-27 3-12 6 32 6 27 23-8 23-22 0-28 4-24 15 8 20-10 19-27-1-29-35-89-40-89-7 0 11 8 14 30 11 30-5 41 5 18 16-7 4-3 4 9 2 26-5 31 9 8 18-14 5-14 9 0 42 21 52 12 53-21 3-38-55-59-69-76-47-7 8-20 18-28 22-8 3-3 4 13 2 31-4 34 2 11 19-15 10-15 14 1 46l18 34-21-19c-12-10-24-27-28-38-6-19-6-19-21 1-20 29-47 26-62-5-10-24-9-31 15-65 17-24 37-40 57-45 17-3 44-15 61-25s41-19 54-19 35-9 50-20c22-17 33-18 61-10 19 5 47 22 62 36l28 27 18-22c21-26 99-45 142-35 27 7 111 80 111 98 0 5 7 17 16 27 23 26 30 122 11 167-8 20-20 57-27 81-7 26-24 55-41 70-35 31-36 44-4 96 29 47 35 137 10 171-15 22-10 57 15 104l12 23 19-24c10-13 19-31 19-39 0-20 19-40 37-40 8 0 24 12 37 27l23 27 17-32c13-26 23-32 48-32 40 0 93 54 103 107 10 56 23 75 45 68 24-8 96 29 110 55 6 11 28 29 50 40 55 28 108 77 129 119 23 44 38 176 22 185-21 14-11 47 28 89 22 24 46 61 55 82 8 22 29 78 47 125 28 75 47 147 105 404 9 38 31 106 49 150 18 45 41 118 51 164 9 45 21 82 24 82 33 0 65-148 80-363 7-114 17-191 27-215s18-91 24-192c8-155 8-155 68-330 34-96 61-184 61-195s-8-34-18-50c-26-42-32-106-17-171 15-67 35-93 35-48 0 34 22 70 37 61 6-4 13-20 16-36 7-35 59-96 98-117 38-19 39-19 39 24 0 21 7 47 15 58 14 17 15 11 9-68-6-84-5-92 30-187 40-109 40-122 0-203-27-54-31-110-9-152 18-34 21-75 10-134-7-41-7-43 43-92 27-27 52-54 54-60 5-17 79-39 133-39 33 0 67 8 98 23 41 20 54 22 84 14 37-10 152 4 183 23 8 5 22 12 30 15s22 10 30 15 27 14 42 20c26 10 27 14 22 52-9 57-28 85-72 102-26 11-44 28-60 58-25 47-110 144-98 112 5-11 13-33 19-49 9-25 11-27 17-12 5 16 8 16 23-8 10-14 23-42 30-62 10-31 19-39 62-53 48-15 50-17 50-53-1-21 3-38 7-38s8-7 8-15c0-21-17-19-50 5-18 13-41 19-61 18-29-3-33 0-41 31-12 46-18 35-9-16 6-32 5-43-6-47-22-9-73 22-73 44 0 10-4 21-9 24-22 14-6-46 20-74 16-17 29-32 29-33s-15-2-32-3c-18-1-43-5-56-9-19-6-23-3-28 23s-15 34-61 53c-31 12-59 31-64 43-6 13-20 22-36 23l-26 1 29-25c16-13 22-22 13-20-9 3-22 1-30-4-11-7-11-9-1-9 8 0 10-5 6-12-5-8-2-9 10-5 10 4 35 4 56 1l39-6-36-19c-52-26-83-25-83 3 0 17-3 19-12 10-10-10-8-17 9-33l21-21 47 21c55 24 95 27 95 7 0-25-99-48-176-40-56 6-74 12-96 35-16 15-28 35-28 43 0 9-4 16-10 16-5 0-10-4-10-10 0-5-7-7-16-3-13 5-15 14-10 44 9 57 25 85 54 96 25 10 26 11 5 12-26 1-27 3-13 51 6 21 19 39 32 45 17 7 25 21 29 50 8 56 43 130 70 149 40 27 141 13 185-26 26-23 34-15 34 34 0 29-7 46-26 65-32 32-49 80-57 159-6 59-6 61 24 83 29 22 31 22 50 5 50-45 109 59 96 169-5 39 0 71 27 156 45 141 49 179 30 286-8 50-19 160-23 245-7 138-11 163-34 214-25 53-27 70-27 180 0 76-6 142-15 176-8 30-22 88-31 129-21 99-65 217-110 299-56 101-165 259-228 331-30 35-58 71-60 80s-12 56-22 105c-19 93-45 139-89 156-24 9-35 45-35 112 0 34 7 46 61 99 36 36 70 82 86 115 23 51 24 62 18 148-5 67-4 96 4 101 7 4 50 8 97 9 78 2 87 5 115 32 45 42 59 82 59 174 0 56 6 96 20 132 11 29 20 73 19 98-1 29-3 38-7 24-9-27-47-74-61-74-6 0-16 12-21 26-13 33-30 22-30-20 0-18-7-41-15-52-14-18-15-17-8 11 5 17 8 52 8 80 0 39-4 50-17 53-14 3-17-2-14-26 3-28 0-30-60-52-49-17-77-21-123-17-60 6-60 5-48-16 7-12 21-32 31-44l19-23h-54c-30 0-98 10-153 22l-99 22 7 75c3 41 8 76 10 78 2 3 14 0 25-7 16-8 45-8 114 1 146 19 223 22 247 9 15-8 20-8 16-1-4 6 0 11 11 12 10 0-4 6-31 12-44 11-47 13-32 26 24 20 116 8 138-19 17-21 17-21 37 18 11 22 27 42 36 46 11 4 14 13 10 25-3 11 1 43 9 71 11 38 13 64 6 107-5 31-13 60-17 64-9 9-9-64 0-78 8-12-10-80-24-88-5-4-9-3-8 2 8 45-16 42-41-6-17-34-28-42-86-61-65-22-67-22-91-4-53 40-94 157-59 170 8 3 24 21 35 39 19 34 20 34 0 40-23 8-24 18-3 50 18 28 12 75-10 75-8 0-17 7-20 16-6 14 0 16 36 10 34-5 39-4 24 5-10 6-45 12-77 13-60 1-72 8-42 24 11 7 16 22 15 48 0 26 2 33 7 21 6-17 8-16 19 8 23 51 11 84-19 49-9-11-26-14-58-12-42 3-46 1-49-22-8-56-47-66-84-21-30 35-45 29-85-34-35-56-82-74-119-47-28 21-34 33-44 97-4 28-11 58-15 68-5 12-3 17 9 17 24 0 19 14-15 39-21 15-29 29-26 41 3 11-3 26-15 36-10 10-32 43-49 74-16 30-39 61-50 68-15 10-12 2 11-26zm-50-254c0-6-3-8-7-5-3 4-12 2-20-5-11-8-12-7-7 6 7 18 34 22 34 4zm30-67c0-31-24-96-39-105-5-4-13-1-17 5-3 6-1 15 6 19 6 4 11 10 11 14-1 3 2 18 5 32 4 14 2 36-4 49-13 28-6 38 19 24 12-6 19-21 19-38zm-270 9c0-5-4-10-10-10-5 0-10 5-10 10 0 6 5 10 10 10 6 0 10-4 10-10zm-160-31c0 23 1 24 20 6 15-14 17-21 9-31-6-8-15-11-20-8s-9 0-9-6c0-15 49-31 84-28 23 2 32 9 34 26 4 26 19 29 25 5 4-15 6-15 12 5 10 31 22 28 30-8 9-39 25-29 25 16 0 40 5 42 31 12 23-28 24-42 3-58-8-8-20-22-25-32-9-16-7-19 8-16 10 2 26 11 37 20 16 14 21 15 32 3 20-20 17-34-5-28-11 3-28 0-38-5-16-9-15-11 10-17l27-7-25-24c-14-13-25-34-25-48s-5-28-11-31c-5-4-14-18-19-31-6-16-17-24-33-24-13 0-32-9-42-20-28-31-69-23-73 14l-4 29 55-6c41-4 57-2 61 8 7 18-15 25-80 25-30 0-54 4-54 9 0 15 56 21 95 10s60-4 35 11c-20 12-107 23-121 15-8-5-9 1-4 24 8 36-3 40-47 17-15-8-30-11-32-7-3 4-1 34 3 66 7 51 5 63-11 85-11 16-16 33-12 44 6 16 9 15 30-11l23-28zm74 10c-8-14-24-10-24 6 0 9 6 12 15 9 8-4 12-10 9-15zm420-169c8-103-5-116-22-22-9 49-8 72 4 111 8 25 11 8 18-89zm18 49c-1-22-3-44-6-47s-6 19-6 48 3 51 6 47c4-3 6-25 6-48zm-165-16c-3-10-5-4-5 12 0 17 2 24 5 18 2-7 2-21 0-30zm263-1c0-7-4-10-10-7-5 3-10 16-10 28 0 18 2 19 10 7 5-8 10-21 10-28zm-298-86c3-19 17-29 51-40 17-6 17-8-4-37l-22-31-14 26c-7 14-20 26-27 26-25 0-35 57-14 78 14 14 24 6 30-22zm266-58c-1-35 1-71 6-80 7-15 4-18-18-16-20 2-25 6-20 21 3 10 7 46 7 78 1 41 6 59 15 59s12-17 10-62zm-72-36c-9-8-26 10-26 26 1 15 2 15 15-2 8-11 13-21 11-24zm-324-47c-6-34-22-65-32-65-14 0-13 63 2 78 17 17 34 9 30-13zm455-33c12-7 32-80 33-115 0-14-4-16-19-7-11 5-34 10-51 10-24 0-33 6-40 26-19 49-13 73 23 83 42 12 40 12 54 3zm-487-90c0-16-7-37-15-48-13-18-14-15-15 29 0 35 4 47 15 47 10 0 15-10 15-28zm-565-25c8-18 20-23 70-27 64-5 89-15 79-31-3-5-1-16 6-24 9-11 5-18-19-36-34-25-33-34 6-42 16-4 45-22 66-41 39-36 44-59 28-130-5-23-12-30-36-33-16-2-47-15-68-29s-43-22-49-18-26 7-44 6-36 3-39 8c-8 13-45 13-45 0 0-7-8-6-22 2-13 7-29 11-35 10-44-9-77 46-88 144-6 52-3 68 15 104 27 53 88 138 106 148 29 16 59 12 69-11zm1494-56c42-29 35-38-40-55-92-21-113-21-105 0 3 9 6 20 6 25s17 20 38 33c39 26 61 26 101-3zm-939-30c0-23-6-31-32-42-18-7-36-18-40-23-5-8-8-7-8 1 0 6 5 15 10 18 6 3 10 15 10 25 0 22 26 50 46 50 9 0 14-11 14-29zm-20-92c5-18 0-27-18-36-13-7-29-10-35-6s-8 0-4-10c3-9 2-19-4-22-16-11-22 25-6 38 9 7 21 25 27 40 12 33 32 31 40-4zm318-99c24 0 25-1 10-16-21-21-98-11-98 13 0 12 7 14 31 9 17-3 43-6 57-6zm936-122c-9-21-21-38-27-38-5 0-15-7-21-15-8-11-20-14-44-9-45 9-40 24 7 24 48 0 74 28 86 92 8 39 9 40 13 14 2-16-4-46-14-68zm-184 24c5-4-21-22-33-22-5 0-5 5-2 11 4 6-1 17-11 25-17 13-16 13 11 2 17-7 32-14 35-16zm90 8c0-5-7-10-16-10-8 0-12 5-9 10 3 6 10 10 16 10 5 0 9-4 9-10zm-155-19c20-8 20-8-1-15-23-7-54 1-54 15 0 11 27 11 55 0zm-1231-144c-2-53-18-69-52-51-15 8-37 14-49 14-36 0-27 17 21 38 24 11 47 25 51 31 13 23 30 4 29-32zm-75-58c51-18 36-69-21-69-26 0-28 3-28 40 0 44 2 45 49 29zm-529-125c-6-14-10-36-10-48 0-31-39-39-71-15l-24 19h26c24 0 40 17 43 43 1 8 27 27 38 27 4 0 3-12-2-26zm501-4c22-12 26-35 4-26-8 3-19-2-24-12-9-14-10-11-11 16 0 35 2 37 31 22zm-234-3492c-3-7-5-2-5 12s2 19 5 13c2-7 2-19 0-25zm-590-164c4-15-25-47-36-39-15 9-14 42 2 48 16 7 30 3 34-9zm41-71c-10-2-26-2-35 0-10 3-2 5 17 5s27-2 18-5zm2710-85c15-15 16-38 1-38-6 0-9 7-5 15 3 9 0 15-9 15-7 0-17 5-20 10-9 14 19 12 33-2zm-33-28c7-12-2-12-30 0-19 8-19 9 2 9 12 1 25-3 28-9z"/><path d="m1493 5235c0-22 2-30 4-17 2 12 2 30 0 40-3 9-5-1-4-23z"/><path d="m1325 5605c-16-7-41-18-55-23-24-10-23-11 13-11 42-1 43-2 20-39l-17-27 25 22c14 13 39 28 57 34s29 15 26 20 4 9 15 9c10 0 21-5 23-12 5-15 28-1 28 18 0 18-42 18-93-1-38-13-38-13-21 6 20 22 19 22-21 4z"/><path d="m752 4323c-1-29-1-53 1-53 1 0 20 7 42 15l40 16-37-4c-37-3-37-2-41 38-3 36-4 34-5-12z"/><path d="m651 734c-12-14-20-28-18-31 3-2 15 10 27 26 26 38 22 40-9 5z"/><path d="m2750 713c0-13 5-23 10-23 13 0 13 11 0 30-8 12-10 11-10-7z"/><path d="m894 587c3-10 6-30 6-43s5-24 10-24c16 0 12 44-6 66-14 17-15 17-10 1z"/><path d="m2811 584c0-11 3-14 6-6 3 7 2 16-1 19-3 4-6-2-5-13z"/><path d="m677 533c-4-3-7-11-7-17s5-5 12 2c6 6 9 14 7 17-3 3-9 2-12-2z"/><path d="m2813 460c-1-17 2-30 7-30 6 0 10 9 10 20s0 23 1 27c0 4-3 9-8 10-4 2-9-11-10-27z"/><path d="m645 400c3-5 8-10 11-10 2 0 4 5 4 10 0 6-5 10-11 10-5 0-7-4-4-10z"/><path d="m855 400c-3-5-2-10 4-10 5 0 13 5 16 10 3 6 2 10-4 10-5 0-13-4-16-10z"/><path d="m2948 393c6-2 18-2 25 0 6 3 1 5-13 5s-19-2-12-5z"/><path d="m720 371c0-5 5-13 10-16 6-3 10-2 10 4 0 5-4 13-10 16-5 3-10 2-10-4z"/><path d="m2650 330c0-5 5-10 11-10 5 0 7 5 4 10-3 6-8 10-11 10-2 0-4-4-4-10z"/></g></svg>